<svg data-v-97fc22ee="" data-noselect="" viewBox="0 0 800 600" width="800" height="600" preserveAspectRatio="none" version="1.1" xmlns="http://www.w3.org/2000/svg" xmlns:xlink="http://www.w3.org/1999/xlink" class="svg-canvas" style=""><defs data-v-97fc22ee=""></defs> <g data-v-97fc22ee="" mask=""><g data-v-97fc22ee="" transform="translate(229.365618358495,272.795396437075) rotate(0,127.92244226632499,82.42244226632499) scale(1,1)" filter="" style="opacity: 1;"><g data-v-97fc22ee=""><svg xmlns="http://www.w3.org/2000/svg" version="1.1" xmlns:xlink="http://www.w3.org/1999/xlink" width="255.84488453264998" height="164.84488453264998" viewBox="0 0 255.84488453264998 164.84488453264998" data-ligature="true" data-parent="shape_rqjy8kmZzg"><g data-role="text" data-width="111.71285156249999" data-height="23" transform="translate(70.92244226632499, 70.92244226632499)"><path d="M2.34 0L-0.03 0L6.46-16.92L8.88-16.92L15.80 0L13.25 0L11.28-5.13L4.20-5.13L2.34 0ZM6.71-11.91L4.85-6.95L10.58-6.95L8.82-11.64Q8.01-13.77 7.62-15.14L7.62-15.14Q7.30-13.52 6.71-11.91L6.71-11.91Z" transform="translate(0 19) " fill="#0063dc" stroke="#0063dc" stroke-width="0.039" data-glyph-w="15.7676953125" data-glyph-h="26.4103125" data-glyph-ascender="21.4006640625" data-glyph-descender="-5.0096484375" data-kerning="0"></path><path d="M11.45 0L9.59 0L9.59-1.80Q8.16 0.28 5.70 0.28L5.70 0.28Q4.62 0.28 3.68-0.14Q2.74-0.55 2.28-1.18Q1.82-1.81 1.64-2.72L1.64-2.72Q1.51-3.34 1.51-4.66L1.51-4.66L1.51-12.26L3.59-12.26L3.59-5.46Q3.59-3.83 3.72-3.27L3.72-3.27Q3.91-2.45 4.55-1.98Q5.18-1.51 6.12-1.51L6.12-1.51Q7.05-1.51 7.87-1.99Q8.69-2.47 9.03-3.30Q9.37-4.12 9.37-5.69L9.37-5.69L9.37-12.26L11.45-12.26L11.45 0Z" transform="translate(15.7676953125 19) " fill="#0063dc" stroke="#0063dc" stroke-width="0.039" data-glyph-w="13.14744140625" data-glyph-h="26.4103125" data-glyph-ascender="21.4006640625" data-glyph-descender="-5.0096484375" data-kerning="0"></path><path d="M6.09-1.86L6.09-1.86L6.39-0.02Q5.52 0.16 4.82 0.16L4.82 0.16Q3.69 0.16 3.07-0.20Q2.45-0.55 2.19-1.14Q1.94-1.72 1.94-3.59L1.94-3.59L1.94-10.64L0.42-10.64L0.42-12.26L1.94-12.26L1.94-15.29L4.01-16.54L4.01-12.26L6.09-12.26L6.09-10.64L4.01-10.64L4.01-3.47Q4.01-2.59 4.12-2.33Q4.22-2.08 4.47-1.93Q4.72-1.78 5.18-1.78L5.18-1.78Q5.53-1.78 6.09-1.86Z" transform="translate(28.91513671875 19) " fill="#0063dc" stroke="#0063dc" stroke-width="0.039" data-glyph-w="6.56794921875" data-glyph-h="26.4103125" data-glyph-ascender="21.4006640625" data-glyph-descender="-5.0096484375" data-kerning="0"></path><path d="M0.78-6.13L0.78-6.13Q0.78-9.53 2.68-11.17L2.68-11.17Q4.26-12.54 6.53-12.54L6.53-12.54Q9.06-12.54 10.67-10.88Q12.27-9.22 12.27-6.30L12.27-6.30Q12.27-3.94 11.56-2.58Q10.85-1.22 9.49-0.47Q8.14 0.28 6.53 0.28L6.53 0.28Q3.96 0.28 2.37-1.37Q0.78-3.02 0.78-6.13ZM2.92-6.13L2.92-6.13Q2.92-3.77 3.95-2.60Q4.98-1.43 6.53-1.43L6.53-1.43Q8.08-1.43 9.11-2.61Q10.13-3.79 10.13-6.20L10.13-6.20Q10.13-8.47 9.10-9.64Q8.07-10.82 6.53-10.82L6.53-10.82Q4.98-10.82 3.95-9.65Q2.92-8.48 2.92-6.13Z" transform="translate(35.4830859375 19) " fill="#0063dc" stroke="#0063dc" stroke-width="0.039" data-glyph-w="13.14744140625" data-glyph-h="26.4103125" data-glyph-ascender="21.4006640625" data-glyph-descender="-5.0096484375" data-kerning="0"></path><path d="M0,0Z" transform="translate(48.63052734375 19) " fill="#0063dc" stroke="#0063dc" stroke-width="0.039" data-glyph-w="6.56794921875" data-glyph-h="26.4103125" data-glyph-ascender="21.4006640625" data-glyph-descender="-5.0096484375" data-kerning="0"></path><path d="M13.90-5.93L13.90-5.93L16.14-5.37Q15.43-2.61 13.60-1.16Q11.77 0.29 9.13 0.29L9.13 0.29Q6.39 0.29 4.68-0.83Q2.97-1.94 2.07-4.05Q1.18-6.16 1.18-8.59L1.18-8.59Q1.18-11.23 2.19-13.20Q3.20-15.17 5.06-16.19Q6.93-17.21 9.17-17.21L9.17-17.21Q11.70-17.21 13.44-15.92Q15.17-14.62 15.85-12.28L15.85-12.28L13.64-11.76Q13.06-13.61 11.94-14.45Q10.82-15.29 9.12-15.29L9.12-15.29Q7.17-15.29 5.86-14.36Q4.55-13.42 4.02-11.85Q3.49-10.27 3.49-8.60L3.49-8.60Q3.49-6.44 4.12-4.83Q4.74-3.22 6.07-2.42Q7.40-1.63 8.95-1.63L8.95-1.63Q10.83-1.63 12.13-2.71Q13.44-3.80 13.90-5.93Z" transform="translate(55.198476562500005 19) " fill="#0063dc" stroke="#0063dc" stroke-width="0.039" data-glyph-w="17.07205078125" data-glyph-h="26.4103125" data-glyph-ascender="21.4006640625" data-glyph-descender="-5.0096484375" data-kerning="0"></path><path d="M0.78-6.13L0.78-6.13Q0.78-9.53 2.68-11.17L2.68-11.17Q4.26-12.54 6.53-12.54L6.53-12.54Q9.06-12.54 10.67-10.88Q12.27-9.22 12.27-6.30L12.27-6.30Q12.27-3.94 11.56-2.58Q10.85-1.22 9.49-0.47Q8.14 0.28 6.53 0.28L6.53 0.28Q3.96 0.28 2.37-1.37Q0.78-3.02 0.78-6.13ZM2.92-6.13L2.92-6.13Q2.92-3.77 3.95-2.60Q4.98-1.43 6.53-1.43L6.53-1.43Q8.08-1.43 9.11-2.61Q10.13-3.79 10.13-6.20L10.13-6.20Q10.13-8.47 9.10-9.64Q8.07-10.82 6.53-10.82L6.53-10.82Q4.98-10.82 3.95-9.65Q2.92-8.48 2.92-6.13Z" transform="translate(72.27052734375 19) " fill="#0063dc" stroke="#0063dc" stroke-width="0.039" data-glyph-w="13.14744140625" data-glyph-h="26.4103125" data-glyph-ascender="21.4006640625" data-glyph-descender="-5.0096484375" data-kerning="0"></path><path d="M11.44 0L9.51 0L9.51-1.55Q8.35 0.28 6.08 0.28L6.08 0.28Q4.62 0.28 3.39-0.53Q2.16-1.34 1.48-2.79Q0.81-4.24 0.81-6.12L0.81-6.12Q0.81-7.95 1.42-9.45Q2.03-10.94 3.26-11.74Q4.48-12.54 5.99-12.54L5.99-12.54Q7.10-12.54 7.96-12.07Q8.83-11.60 9.37-10.85L9.37-10.85L9.37-16.92L11.44-16.92L11.44 0ZM2.94-6.12L2.94-6.12Q2.94-3.76 3.94-2.60Q4.93-1.43 6.28-1.43L6.28-1.43Q7.64-1.43 8.59-2.55Q9.55-3.66 9.55-5.94L9.55-5.94Q9.55-8.46 8.58-9.64Q7.61-10.82 6.19-10.82L6.19-10.82Q4.80-10.82 3.87-9.68Q2.94-8.55 2.94-6.12Z" transform="translate(85.41796875 19) " fill="#0063dc" stroke="#0063dc" stroke-width="0.039" data-glyph-w="13.14744140625" data-glyph-h="26.4103125" data-glyph-ascender="21.4006640625" data-glyph-descender="-5.0096484375" data-kerning="0"></path><path d="M9.95-3.95L9.95-3.95L12.10-3.68Q11.59-1.80 10.22-0.76Q8.84 0.28 6.71 0.28L6.71 0.28Q4.02 0.28 2.44-1.38Q0.87-3.04 0.87-6.03L0.87-6.03Q0.87-9.12 2.46-10.83Q4.05-12.54 6.59-12.54L6.59-12.54Q9.05-12.54 10.61-10.86Q12.17-9.19 12.17-6.15L12.17-6.15Q12.17-5.97 12.15-5.60L12.15-5.60L3.01-5.60Q3.13-3.58 4.16-2.50Q5.18-1.43 6.72-1.43L6.72-1.43Q7.86-1.43 8.67-2.03Q9.48-2.63 9.95-3.95ZM3.13-7.31L3.13-7.31L9.97-7.31Q9.83-8.85 9.19-9.63L9.19-9.63Q8.20-10.83 6.61-10.83L6.61-10.83Q5.18-10.83 4.21-9.87Q3.23-8.91 3.13-7.31Z" transform="translate(98.56541015625 19) " fill="#0063dc" stroke="#0063dc" stroke-width="0.039" data-glyph-w="13.14744140625" data-glyph-h="26.4103125" data-glyph-ascender="21.4006640625" data-glyph-descender="-5.0096484375" data-kerning="0"></path></g></svg></g></g></g><g data-v-97fc22ee="" mask=""><g data-v-97fc22ee="" transform="translate(35.91173159966496,2.38951015420497) rotate(0,426.60946974811503,289.10946974811503) scale(1,1)" filter="" style="opacity: 1;"><g data-v-97fc22ee=""><svg xmlns="http://www.w3.org/2000/svg" version="1.1" xmlns:xlink="http://www.w3.org/1999/xlink" width="853.2189394962302" height="578.2189394962301" viewBox="0 0 853.2189394962302 578.2189394962301" data-ligature="true" data-parent="shape_awPVCCiLnv"><g data-role="text" data-width="355.36190000000005" data-height="82" transform="translate(248.10946974811503, 248.10946974811503)"><path d="M19.43-51.77L52.02-51.77L58.30-4.96L44.08-4.96L42.43-17.70L22.58-17.70L17.04-4.96L3.56-4.96L21.83-49.45L19.43-51.77ZM39.28-43.83L33.74-43.83L25.80-25.64L41.68-25.64L39.28-43.83Z" transform="translate(0 69) " fill="#0063dc" stroke="#0063dc" stroke-width="0.138" data-glyph-w="61.85960000000001" data-glyph-h="107.51000000000002" data-glyph-ascender="82.7" data-glyph-descender="-24.810000000000002" data-kerning="0"></path><path d="M5.71-39.86L23.98-39.86L20.34-15.05L30.27-16.04L33.49-37.55L31.10-39.86L49.37-39.86L44.58-4.96L28.70-4.96L29.19-8.10L3.31-4.96L8.10-37.55L5.71-39.86Z" transform="translate(61.85960000000001 69) " fill="#0063dc" stroke="#0063dc" stroke-width="0.138" data-glyph-w="52.6799" data-glyph-h="107.51000000000002" data-glyph-ascender="82.7" data-glyph-descender="-24.810000000000002" data-kerning="0"></path><path d="M10.59-39.86L11.25-44.66L9.68-47.06L27.13-47.06L26.05-39.86L35.89-39.86L34.24-31.92L25.06-31.92L22.33-12.90L30.27-12.90L28.70-4.96L11.25-4.96Q8.85-4.96 7.36-6.53Q5.87-8.10 6.45-10.50L6.45-10.50L9.68-31.92L3.31-31.92L4.14-39.86L10.59-39.86Z" transform="translate(114.5395 69) " fill="#0063dc" stroke="#0063dc" stroke-width="0.138" data-glyph-w="37.54580000000001" data-glyph-h="107.51000000000002" data-glyph-ascender="82.7" data-glyph-descender="-24.810000000000002" data-kerning="0"></path><path d="M7.28-39.86L43.00-39.86Q45.40-39.86 46.60-37.92Q47.80-35.97 47.80-33.58L47.80-33.58L43.83-4.96L8.10-4.96Q5.71-4.96 4.51-6.53Q3.31-8.10 3.31-10.50L3.31-10.50L7.28-39.86ZM31.92-31.92L22.33-31.92L19.19-12.90L28.70-12.90L31.92-31.92Z" transform="translate(152.08530000000002 69) " fill="#0063dc" stroke="#0063dc" stroke-width="0.138" data-glyph-w="51.1086" data-glyph-h="107.51000000000002" data-glyph-ascender="82.7" data-glyph-descender="-24.810000000000002" data-kerning="0"></path><path d="M8.27-57.23L74.26-57.23L73.19-49.37L66.90-49.37L64.51-32.09L72.36-32.09L71.20-24.23L63.35-24.23L59.87 0.74L44.16 0.74L47.64-24.23L24.89-24.23L17.45 0.74L1.74 0.74L9.18-24.23L2.07-24.23L3.23-32.09L11.50-32.09L16.62-49.37L7.19-49.37L8.27-57.23ZM32.34-49.37L27.21-32.09L48.79-32.09L51.19-49.37L32.34-49.37Z" transform="translate(203.1939 69) " fill="#0063dc" stroke="#0063dc" stroke-width="0.138" data-glyph-w="76.084" data-glyph-h="107.51000000000002" data-glyph-ascender="82.7" data-glyph-descender="-24.810000000000002" data-kerning="0"></path><path d="M32.91-58.80L51.77-58.80L44.49-46.23L74.35-46.23L73.27-38.37L39.94-38.37L38.12-35.23L68.89-35.23L66.90-21.09L54.91-12.32L70.87 0.74L53.92 0.74L45.82-5.79L36.80 0.74L19.85 0.74L37.79-12.24L29.03-19.35L17.45 0.74L1.74 0.74L24.23-38.37L8.85-38.37L9.92-46.23L13.98-53.42L12.07-55.66L29.36-55.66L24.07-46.23L28.78-46.23L34.82-56.65L32.91-58.80ZM71.20-57.23L73.11-48.63L58.97-48.63L57.06-57.23L71.20-57.23ZM54.66-28.95L34.49-28.95L33.16-26.55L41.02-26.55L40.69-24.07L46.89-18.94L54.00-24.07L54.66-28.95Z" transform="translate(279.27790000000005 69) " fill="#0063dc" stroke="#0063dc" stroke-width="0.138" data-glyph-w="76.084" data-glyph-h="107.51000000000002" data-glyph-ascender="82.7" data-glyph-descender="-24.810000000000002" data-kerning="0"></path></g></svg></g></g></g><g data-v-97fc22ee="" mask=""><g data-v-97fc22ee="" transform="translate(160,229.9599779404) rotate(0,87.356760405454,70.040022059595) scale(1,1)" filter="" style="opacity: 1;"><g data-v-97fc22ee=""><rect fill="rgba(0,0,0,0)" width="194.71352081091" height="160.08004411919" x="-10" y="-10"></rect><svg version="1.1" id="图层_1" xmlns="http://www.w3.org/2000/svg" xmlns:xlink="http://www.w3.org/1999/xlink" x="0px" y="0px" viewBox="0 0 56.5 45.3" style="enable-background:new 0 0 56.5 45.3;" xml:space="preserve" width="174.71352081091" height="140.08004411919" class="style-removed" preserveAspectRatio="none" data-parent="shape_T4m9c7b9Wf">

<g>
	<g>
		<g>
			<g>
				<path d="M26.2,42.5c2.7,1.2,2.7,1.4,2.7,1.5c-0.3,0.3-3.6-1.1-5-2.1c-0.2-0.1-0.2-0.2-0.2-0.2
					C23.8,41.6,23.9,41.5,26.2,42.5" fill="#0063DC" stroke-width="0"></path>
			</g>
		</g>
		<g>
			<g>
				<path d="M25.6,39.9c1.2,0.8,2.4,2,1.5,2.2c-1.1,0.2-4.4-1.5-4.7-2.9C22.4,38.3,24.1,38.8,25.6,39.9" fill="#0063DC" stroke-width="0"></path>
			</g>
		</g>
		<g>
			<g>
				<path d="M27.1,36.3c1.3,1.4,1.4,2.9-0.2,2.9c-1.7-0.1-4.3-2.1-3.6-3.7C24,34.4,25.9,35,27.1,36.3" fill="#0063DC" stroke-width="0"></path>
			</g>
		</g>
		<g>
			<g>
				<path d="M35.3,45c0.8,0,1.4-0.1,2-0.1c0.7,0,0.8,0,0.9,0c-0.1,0.2-2.1,0.6-5,0.2c-0.2,0-0.3,0-0.3-0.1
					c0.1,0,0.1,0,0.9,0C34.2,45,34.7,45,35.3,45" fill="#0063DC" stroke-width="0"></path>
			</g>
		</g>
		<g>
			<g>
				<path d="M33.3,44.1c2.2,0.3,2.6,0.3,2.7,0.4c-0.2,0.5-4.2,0.4-5.6-0.4c-0.1-0.1-0.3-0.2,0.1-0.3
					C31,43.8,32.4,44,33.3,44.1" fill="#0063DC" stroke-width="0"></path>
			</g>
		</g>
		<g>
			<g>
				<path d="M32.5,42.5c1.2,0.4,2.5,0.9,2,1.2c-0.9,0.4-5-0.1-5.5-1.3C29,41.7,30.4,41.8,32.5,42.5" fill="#0063DC" stroke-width="0"></path>
			</g>
		</g>
		<g>
			<g>
				<path d="M33.3,40c0.6,0.4,2,1.6,0.9,1.9c-1.6,0.4-5.1-1-4.7-2.4C30.1,38.7,31.9,39.1,33.3,40" fill="#0063DC" stroke-width="0"></path>
			</g>
		</g>
		<g>
			<g>
				<path d="M36,37c0.9,1.3,0.7,2.9-1.4,2.5c-1.8-0.3-3.6-2-2.5-3.4C33.2,35.1,35.1,35.7,36,37" fill="#0063DC" stroke-width="0"></path>
			</g>
		</g>
		<g>
			<g>
				<path d="M40.8,43.6c1.1-0.2,1.5-0.3,2.6-0.7c-0.9,0.5-4.4,1.6-5.8,1.4c0,0-0.1,0-0.1,0
					C37.6,44.3,37.6,44.3,40.8,43.6" fill="#0063DC" stroke-width="0"></path>
			</g>
		</g>
		<g>
			<g>
				<path d="M39.5,42.2c1.6,0.5,1.7,0.6,1.7,0.6c-0.3,0.4-4.9,0.2-5-0.7c0,0,0-0.1,0-0.1
					C36.3,41.8,36.8,41.4,39.5,42.2" fill="#0063DC" stroke-width="0"></path>
			</g>
		</g>
		<g>
			<g>
				<path d="M40.5,40.6c0.5,0.5,1.2,1.4,0.3,1.4c-1.5,0-4.1-1.1-3.3-2.1C38.1,39.3,39.5,39.6,40.5,40.6" fill="#0063DC" stroke-width="0"></path>
			</g>
		</g>
		<g>
			<g>
				<g>
					<path d="M21,5.4c0.4-0.5,0.7-0.6,0.8-0.7c-1,0.8-1.1,0.9-1.9,1.7l-0.6,0.6c-0.2,0.2-0.6,0.6-0.6,0.8c0,0,0,0,0,0
						C18.8,7.7,18.8,7.7,21,5.4z" fill="#0063DC" stroke-width="0"></path>
				</g>
			</g>
			<g>
				<g>
					<path d="M24.3,3.2c0.3-0.4,0.4-0.4,0.4-0.4c-0.9,0.5-1.1,0.6-1.9,1.2c-0.7,0.5-1,0.9-1,1
						C21.8,5.2,23,4.5,24.3,3.2z" fill="#0063DC" stroke-width="0"></path>
				</g>
			</g>
			<g>
				<g>
					<path d="M27.4,1.6c0-0.1-0.1,0-0.2,0c-0.2,0.1-0.4,0.2-0.5,0.2c-0.3,0.1-0.7,0.3-0.9,0.4
						c-0.6,0.3-0.5,0.4-0.5,0.5C25.5,2.9,27.4,1.9,27.4,1.6z" fill="#0063DC" stroke-width="0"></path>
				</g>
			</g>
			<g>
				<g>
					<path d="M29.9,0.7c0,0,0,0-0.2,0c0,0-0.1,0-0.1,0l0,0c-0.3,0.1-0.3,0.1-1,0.3c-0.2,0.1-0.5,0.2-0.7,0.3
						c0,0,0.1,0,0.3,0C29.3,1.1,29.9,0.8,29.9,0.7z" fill="#0063DC" stroke-width="0"></path>
				</g>
			</g>
			<g>
				<g>
					<path d="M15.6,13.1c0.2-0.6,0.5-1.5,0.5-1.8c0,0,0,0,0,0c-0.1,0-0.1,0.1-0.2,0.3c-0.2,0.3-0.2,0.4-0.4,0.8
						l-0.2,0.4c-0.2,0.5-0.5,1.2-0.7,1.7c-0.1,0.1-0.5,1.3-0.5,1.7c0,0,0.1,0.1,0.1,0.1C14.4,16.2,15.1,14.6,15.6,13.1z" fill="#0063DC" stroke-width="0"></path>
				</g>
			</g>
			<g>
				<g>
					<path d="M16.5,12.4c0.3,0.7,2-1.1,2.7-3.1v0c0.1-0.4,0.2-0.8,0.2-1c0-0.5-0.3-0.5-0.9,0.1
						C17.2,9.7,16.3,11.8,16.5,12.4z" fill="#0063DC" stroke-width="0"></path>
				</g>
			</g>
			<g>
				<g>
					<path d="M24,5.7c0.2-0.7-0.3-1.4-1.7-0.4c-1.5,1.1-2.2,2.6-1.9,3.1C21.1,9.3,23.7,7.3,24,5.7z" fill="#0063DC" stroke-width="0"></path>
				</g>
			</g>
			<g>
				<g>
					<path d="M28.9,2.9c-0.1-0.5-1.1-0.8-2.4-0.2c-1.4,0.8-1.7,1.8-1,2.2C26.6,5.5,29.3,4,28.9,2.9z" fill="#0063DC" stroke-width="0"></path>
				</g>
			</g>
			<g>
				<g>
					<path d="M32.1,2.3c1.1-0.3,1.6-0.9,1-1.3c-0.5-0.3-1.9-0.4-3,0c-0.1,0.1-0.4,0.2-0.6,0.4
						C29.2,2.1,30.5,2.7,32.1,2.3z" fill="#0063DC" stroke-width="0"></path>
				</g>
			</g>
			<g>
				<g>
					<path d="M36.8,0.6c0.3-0.2,0-0.4-0.7-0.5c-1.1-0.2-2.8-0.1-3.4,0c-0.1,0-0.1,0-0.2,0.1C32.8,0.6,36,1,36.8,0.6z" fill="#0063DC" stroke-width="0"></path>
				</g>
			</g>
			<g>
				<g>
					<path d="M17.5,13.2c-1.4,1.5-1.8,3.9-1,4.7c1,1.1,3-1.4,3.1-3.7C19.6,13,18.8,12,17.5,13.2z" fill="#0063DC" stroke-width="0"></path>
				</g>
			</g>
			<g>
				<g>
					<path d="M22.5,9c-1.8,1.4-2.2,3.4-1.3,4.1c1.4,1.1,4.5-1.3,4.3-3.4C25.4,8.7,24.3,7.8,22.5,9z" fill="#0063DC" stroke-width="0"></path>
				</g>
			</g>
			<g>
				<g>
					<path d="M31.8,6c-0.3-0.9-1.7-1.7-3.6-0.7c-1.8,1.1-1.9,2.8-0.8,3.4C29.2,9.7,32.3,7.8,31.8,6z" fill="#0063DC" stroke-width="0"></path>
				</g>
			</g>
			<g>
				<g>
					<path d="M33.6,2.7c-0.1,0.1-0.3,0.2-0.5,0.3c-1.1,0.9-0.4,2.3,1.5,2.6c2,0.3,3.7-1,2.8-2.1
						C36.8,2.6,35,2.1,33.6,2.7z" fill="#0063DC" stroke-width="0"></path>
				</g>
			</g>
			<g>
				<g>
					<path d="M41.7,3.3c0.9-0.2,1-0.8,0.2-1.4c-0.9-0.7-2.9-1.2-4-0.9c-0.2,0.1-0.3,0.1-0.4,0.2
						C36.8,2.1,39.7,3.8,41.7,3.3z" fill="#0063DC" stroke-width="0"></path>
				</g>
			</g>
			<g>
				<g>
					<path d="M45.5,2.5C45.5,2.5,45.5,2.5,45.5,2.5c-1.3-0.8-2.6-1.4-4-1.8c-0.6-0.1-0.8-0.2-0.9-0.2c0,0-0.1,0-0.1,0
						C40.5,1,44.8,2.8,45.5,2.5z" fill="#0063DC" stroke-width="0"></path>
				</g>
			</g>
			<g>
				<g>
					<path d="M21.9,22.1c0.1-0.6,0.2-1.2,0-1.9c-0.4-1.7-1.8-2.6-3.3-1.2c-0.2,0.2-0.4,0.5-0.5,0.7
						c0.4,0.3,0.8,0.6,1.2,0.9C20.1,21.1,20.9,21.6,21.9,22.1z" fill="#0063DC" stroke-width="0"></path>
				</g>
			</g>
			<g>
				<g>
					<path d="M23.8,18.9c2,1.3,5.2-1.2,4.7-3.8c-0.3-1.4-1.9-2.6-4.1-1.2C22.4,15.6,22.4,18,23.8,18.9z" fill="#0063DC" stroke-width="0"></path>
				</g>
			</g>
			<g>
				<g>
					<path d="M30.6,14c2.2,1.4,5.5-0.7,4.9-3.1c-0.3-1.3-2.2-2.4-4.3-1.3C29.1,10.9,29.2,13.1,30.6,14z" fill="#0063DC" stroke-width="0"></path>
				</g>
			</g>
			<g>
				<g>
					<path d="M42,7.8c-0.5-1.2-2.4-2.3-4.4-1.5c-2,1-1.5,3.3,0.5,4.1C40.4,11.3,42.8,9.7,42,7.8z" fill="#0063DC" stroke-width="0"></path>
				</g>
			</g>
			<g>
				<g>
					<path d="M43.1,4.2c-0.1,0-0.2,0.1-0.3,0.1c-1.3,0.8,0.4,3.2,2.6,3.7c1.8,0.4,2.8-0.6,1.9-2
						C46.5,5,44.6,3.8,43.1,4.2z" fill="#0063DC" stroke-width="0"></path>
				</g>
			</g>
			<g>
				<g>
					<path d="M50.9,7.1c-1.1-1.4-2.4-2.6-3.8-3.6c-0.1,0-0.2,0-0.3,0c-0.1,0-0.2,0-0.2,0.1C46.1,4.2,49.5,7.1,50.9,7.1
						z" fill="#0063DC" stroke-width="0"></path>
				</g>
			</g>
			<g>
				<g>
					<path d="M18.9,34.8c-0.6-0.6-1.7-1.4-1.7-0.4c0.2,1.6,2.6,4.1,3.6,4.2c0.8,0.1,0.1-1.6-1.1-3
						C19.4,35.3,19.1,35,18.9,34.8z" fill="#0063DC" stroke-width="0"></path>
				</g>
			</g>
			<g>
				<g>
					<path d="M32.5,21.5c-0.4-1.6-2.4-2.9-4.6-1.5c-1.7,1.4-1.7,3.4-0.7,4.6c0.7,0.3,1.5,0.6,2.3,0.9
						C31.4,25.5,33,23.6,32.5,21.5z" fill="#0063DC" stroke-width="0"></path>
				</g>
			</g>
			<g>
				<g>
					<path d="M34.6,20.5c2.3,1.5,5.4-0.5,4.9-3.1v0c-0.3-1.6-2.2-3.1-4.5-1.9C32.8,16.8,33,19.4,34.6,20.5z" fill="#0063DC" stroke-width="0"></path>
				</g>
			</g>
			<g>
				<g>
					<path d="M14.1,16.4C14.1,16.4,14.1,16.4,14.1,16.4c0-0.1,0-0.1,0-0.1C14,16.4,14,16.4,14.1,16.4z" fill="#0063DC" stroke-width="0"></path>
				</g>
			</g>
			<g>
				<g>
					<path d="M14.8,28.9c-0.3-0.1-0.6-0.3-0.9-0.4c0.4,1.8,1.7,4.9,2.1,4.9c0.3,0.1,0-1.7-0.8-3.5
						C15.1,29.5,15,29.2,14.8,28.9z" fill="#0063DC" stroke-width="0"></path>
				</g>
			</g>
			<g>
				<g>
					<path d="M18.2,30.3c-0.6,1.7,1,4.2,2.5,4.6c1.6,0.4,1.9-1.6,1-3.3C20.5,31.2,19.3,30.7,18.2,30.3z" fill="#0063DC" stroke-width="0"></path>
				</g>
			</g>
			<g>
				<g>
					<path d="M28.4,35.4c1.5,0.5,2.5-0.2,2.8-1.3c-1.8-0.4-3.5-0.8-5.1-1.2C26.3,34.1,27.3,35.1,28.4,35.4z" fill="#0063DC" stroke-width="0"></path>
				</g>
			</g>
		</g>
		<g>
			<g>
				<path d="M15,6.1c0,0-14.1-2.6-15,6.3s23.4,24.1,56.4,22.2c0,0-28.1-4.8-40.2-12.9C4.9,14.1,5.6,8.1,15,6.1z" fill="#0063DC" stroke-width="0"></path>
			</g>
		</g>
	</g>
</g>
</svg></g></g></g></svg>